# xmcd
#
# Track frame offsets: 
#        150
#        43695
#        76640
#        92570
#        116237
#        135707
#
# Disc length: 2394 seconds
#
# Revision: 2
# Processed by: cddbd v1.5.2PL0 Copyright (c) Steve Scherf et al.
# Submitted via: ExactAudioCopy v0.95b4
#
DISCID=44095806
DTITLE=Teddy Edwards - Howard McGhee - Together Again
DYEAR=1961
DGENRE=Jazz
TTITLE0=Together Again
TTITLE1=You Stepped Out Of A Dream
TTITLE2=Up There
TTITLE3=Perhaps
TTITLE4=Misty
TTITLE5=Sandy
EXTD=YEAR: 1961
EXTT0=
EXTT1=
EXTT2=
EXTT3=
EXTT4=
EXTT5=
PLAYORDER=
